<svg xmlns="http://www.w3.org/2000/svg" version="1.1" xmlns:xlink="http://www.w3.org/1999/xlink" xmlns:svgjs="http://svgjs.dev/svgjs" width="1000" height="1000" viewBox="0 0 1000 1000"><rect width="1000" height="1000" fill="#471aa0"></rect><g transform="matrix(0.7,0,0,0.7,149.57575757575756,454.51295560797973)"><svg viewBox="0 0 396 52" data-background-color="#471aa0" preserveAspectRatio="xMidYMid meet" height="131" width="1000" xmlns="http://www.w3.org/2000/svg" xmlns:xlink="http://www.w3.org/1999/xlink"><g id="tight-bounds" transform="matrix(1,0,0,1,0.2400000000000091,-0.2058199739906854)"><svg viewBox="0 0 395.52 52.41163994798135" height="52.41163994798135" width="395.52"><g><svg viewBox="0 0 462.4461939806227 61.280247305387185" height="52.41163994798135" width="395.52"><g transform="matrix(1,0,0,1,0,8.469267174622978)"><svg viewBox="0 0 395.52 44.34171295614123" height="44.34171295614123" width="395.52"><g><svg viewBox="0 0 395.52 44.34171295614123" height="44.34171295614123" width="395.52"><g><svg viewBox="0 0 395.52 23.91580116248807" height="23.91580116248807" width="395.52"><g transform="matrix(1,0,0,1,0,0)"><svg width="395.52" viewBox="1.5 -34.150001525878906 576.2999877929688 34.85000228881836" height="23.91580116248807" data-palette-color="#ffffff"><path d="M24-9.45L24 0 1.5 0 1.5-33.5 13.1-33.5 13.1-9.45 24-9.45ZM51.05 0L25.95 0 25.95-33.5 51.05-33.5 51.05-24.25 37.55-24.25 37.55-21.4 48.05-21.4 48.05-12.25 37.55-12.25 37.55-9.25 51.05-9.25 51.05 0ZM68.8-19.7L81.15-19.7 81.15-1Q72.1 0.45 67.75 0.45 63.4 0.45 60.32-0.53 57.25-1.5 55.5-3.75 53.75-6 53.07-9.05 52.4-12.1 52.4-16.8L52.4-16.8Q52.4-26.45 56-30.3 59.6-34.15 68.15-34.15L68.15-34.15Q70.7-34.15 73.9-33.73 77.1-33.3 79-32.9L79-32.9 80.9-32.45 80.9-23.7Q73.7-24.35 70.67-24.35 67.65-24.35 66.72-24.08 65.8-23.8 65.25-23.43 64.7-23.05 64.45-21.95L64.45-21.95Q64.1-20.4 64.1-16.5 64.1-12.6 65-10.83 65.9-9.05 68.65-9.05L68.65-9.05 70.35-9.1 70.35-11.6 68.85-11.6 68.8-19.7ZM109.09 0L83.99 0 83.99-33.5 109.09-33.5 109.09-24.25 95.59-24.25 95.59-21.4 106.09-21.4 106.09-12.25 95.59-12.25 95.59-9.25 109.09-9.25 109.09 0ZM123.04 0L111.44 0 111.44-33.5 122.84-33.5 130.54-20.8 131.24-20.8 131.24-33.5 142.84-33.5 142.84 0 131.39 0 123.79-13.65 123.04-13.65 123.04 0ZM160.49 0L160.49 0 145.84 0 145.84-33.5 159.99-33.5Q168.64-33.5 172.44-29.6 176.24-25.7 176.24-17.13 176.24-8.55 172.59-4.28 168.94 0 160.49 0ZM164.54-16.55Q164.54-21.05 163.61-22.55 162.69-24.05 159.49-24.05L159.49-24.05 157.44-24.05 157.44-9.45 159.49-9.45Q162.09-9.45 163.34-10.75L163.34-10.75Q164.54-12.05 164.54-16.55ZM187.19 0L175.79 0 183.19-33.5 200.74-33.5 208.29 0 196.59 0 195.64-3.85 187.99-3.85 187.19 0ZM192.64-24.4L191.39-24.4 189.49-12.7 194.44-12.7 192.64-24.4ZM225.83 0L223.93-8.65 221.08-8.65 221.08 0 209.48 0 209.48-33.5 223.58-33.5Q231.33-33.5 234.68-30.93 238.03-28.35 238.03-21.38 238.03-14.4 234.33-11.4L234.33-11.4 237.63 0 225.83 0ZM221.03-17.8L223.88-17.8Q226.33-17.8 226.33-21.08 226.33-24.35 223.58-24.35L223.58-24.35 221.03-24.35 221.03-17.8ZM257.98-10.5L257.98 0 246.38 0 246.38-10.5 236.83-33.5 249.13-33.5 252.28-23.65 255.53-33.5 267.78-33.5 257.98-10.5ZM304.33 0L279.23 0 279.23-33.5 304.33-33.5 304.33-24.25 290.83-24.25 290.83-21.4 301.33-21.4 301.33-12.25 290.83-12.25 290.83-9.25 304.33-9.25 304.33 0ZM329.17-9.45L329.17 0 306.67 0 306.67-33.5 318.27-33.5 318.27-9.45 329.17-9.45ZM356.22 0L331.12 0 331.12-33.5 356.22-33.5 356.22-24.25 342.72-24.25 342.72-21.4 353.22-21.4 353.22-12.25 342.72-12.25 342.72-9.25 356.22-9.25 356.22 0ZM382.62-9.45L382.77-0.65Q377.47 0.65 371.92 0.65 366.37 0.65 363.37-0.93 360.37-2.5 359.04-6.2 357.72-9.9 357.72-16.85L357.72-16.85Q357.72-26.8 360.79-30.48 363.87-34.15 372.52-34.15L372.52-34.15Q376.12-34.15 381.02-33.15L381.02-33.15 382.77-32.8 382.47-23.85Q378.37-24.35 374.89-24.35 371.42-24.35 370.42-23.03 369.42-21.7 369.42-17.55 369.42-13.4 369.89-11.8 370.37-10.2 371.42-9.68 372.47-9.15 374.82-9.15L374.82-9.15 382.62-9.45ZM390.81-24.05L383.91-24.05 383.91-33.5 408.91-33.5 408.91-24.05 402.41-24.05 402.41 0 390.81 0 390.81-24.05ZM427.26 0L425.36-8.65 422.51-8.65 422.51 0 410.91 0 410.91-33.5 425.01-33.5Q432.76-33.5 436.11-30.93 439.46-28.35 439.46-21.38 439.46-14.4 435.76-11.4L435.76-11.4 439.06 0 427.26 0ZM422.46-17.8L425.31-17.8Q427.76-17.8 427.76-21.08 427.76-24.35 425.01-24.35L425.01-24.35 422.46-24.35 422.46-17.8ZM452.76-16.75Q452.76-12.5 453.58-10.63 454.41-8.75 457.03-8.75 459.66-8.75 460.46-10.6 461.26-12.45 461.26-16.78 461.26-21.1 460.49-22.93 459.71-24.75 457.06-24.75 454.41-24.75 453.58-22.88 452.76-21 452.76-16.75ZM472.96-16.75Q472.96-7.6 469.16-3.48 465.36 0.65 457.03 0.65 448.71 0.65 444.88-3.5 441.06-7.65 441.06-16.78 441.06-25.9 444.86-30.03 448.66-34.15 457.01-34.15 465.36-34.15 469.16-30.03 472.96-25.9 472.96-16.75ZM486.86 0L475.26 0 475.26-33.5 486.66-33.5 494.36-20.8 495.06-20.8 495.06-33.5 506.66-33.5 506.66 0 495.21 0 487.61-13.65 486.86-13.65 486.86 0ZM521.25 0L509.65 0 509.65-33.5 521.25-33.5 521.25 0ZM548.55-9.45L548.7-0.65Q543.4 0.65 537.85 0.65 532.3 0.65 529.3-0.93 526.3-2.5 524.98-6.2 523.65-9.9 523.65-16.85L523.65-16.85Q523.65-26.8 526.73-30.48 529.8-34.15 538.45-34.15L538.45-34.15Q542.05-34.15 546.95-33.15L546.95-33.15 548.7-32.8 548.4-23.85Q544.3-24.35 540.83-24.35 537.35-24.35 536.35-23.03 535.35-21.7 535.35-17.55 535.35-13.4 535.83-11.8 536.3-10.2 537.35-9.68 538.4-9.15 540.75-9.15L540.75-9.15 548.55-9.45ZM576.7-32.85L576.4-23.85Q569.35-24.6 566.15-24.6 562.95-24.6 562.42-24.43 561.9-24.25 561.9-23.7 561.9-23.15 562.5-22.85 563.1-22.55 566.27-21.85 569.45-21.15 571.47-20.48 573.5-19.8 575.12-18.57 576.75-17.35 577.27-15.58 577.8-13.8 577.8-10.8L577.8-10.8Q577.8-4.6 574.5-1.95 571.2 0.7 564.55 0.7L564.55 0.7Q561.35 0.7 557.82 0.25 554.3-0.2 552.4-0.65L552.4-0.65 550.45-1.1 550.95-9.95Q558.6-8.85 563.5-8.85L563.5-8.85Q566.1-8.85 566.1-10L566.1-10Q566.1-10.5 565.5-10.73 564.9-10.95 562.25-11.35L562.25-11.35Q555.25-12.45 552.72-14.78 550.2-17.1 550.2-22.4L550.2-22.4Q550.2-29.15 553.45-31.65 556.7-34.15 563.45-34.15L563.45-34.15Q568.2-34.15 574.6-33.2L574.6-33.2 576.7-32.85Z" opacity="1" transform="matrix(1,0,0,1,0,0)" fill="#ffffff" class="undefined-text-0" data-fill-palette-color="primary" id="text-0"></path></svg></g></svg></g><g transform="matrix(1,0,0,1,291.8526603913235,29.5617478377236)"><svg viewBox="0 0 103.66733960867646 14.779965118417627" height="14.779965118417627" width="103.66733960867646"><g transform="matrix(1,0,0,1,0,0)"><svg width="103.66733960867646" viewBox="3.700000047683716 -35 249.6800079345703 35.599998474121094" height="14.779965118417627" data-palette-color="#ffffff"><path d="M3.7 0L3.7-34.4 33.45-34.4 33.45-26.15 14.75-26.15 14.75-21.4 30.75-21.4 30.75-13.5 14.75-13.5 14.75-8.25 33.8-8.25 33.8 0 3.7 0ZM51.65-27Q56.95-27 60.62-24.93 64.3-22.85 64.3-18.5L64.3-18.5 55.05-18.5Q55.05-19.95 53.75-20.55L53.75-20.55Q52.85-21.05 51.5-21.05L51.5-21.05Q47.9-21.05 47.9-19.35L47.9-19.35Q47.9-18.4 49.15-18 50.4-17.6 53.25-17.15L53.25-17.15Q56.75-16.65 59.1-15.98 61.45-15.3 63.2-13.58 64.95-11.85 64.95-8.75L64.95-8.75Q64.95-3.7 61.17-1.55 57.4 0.6 51.3 0.6L51.3 0.6Q47.8 0.6 44.7-0.38 41.6-1.35 39.65-3.4 37.7-5.45 37.7-8.6L37.7-8.6 46.95-8.6 46.95-8.4Q47-6.7 48.37-6.03 49.75-5.35 51.3-5.35L51.3-5.35Q55.45-5.35 55.45-7.3L55.45-7.3Q55.45-8.3 54.15-8.75 52.85-9.2 49.9-9.7L49.9-9.7Q46.35-10.3 44.07-11 41.8-11.7 40.1-13.38 38.4-15.05 38.4-18.05L38.4-18.05Q38.4-22.9 42.07-24.95 45.75-27 51.65-27L51.65-27ZM81.65-26.4L87.25-26.4 87.25-19.65 81.65-19.65 81.65-9.6Q81.65-7.8 82.25-6.98 82.85-6.15 84.45-6.15L84.45-6.15 87.25-6.15 87.25-0.3Q86.05 0.1 84.15 0.35 82.25 0.6 80.85 0.6L80.85 0.6Q76.45 0.6 74.07-1 71.7-2.6 71.7-6.45L71.7-6.45 71.7-19.65 68-19.65 68-26.4 72.1-26.4 74.25-34.4 81.65-34.4 81.65-26.4ZM102.49 0L91.89 0 91.89-9.95 102.49-9.95 102.49 0ZM139.44-35Q143.49-35 146.46-33.73 149.44-32.45 151.06-30.1 152.69-27.75 152.69-24.65L152.69-24.65Q152.69-21.75 151.24-19.4 149.79-17.05 147.59-15.25 145.39-13.45 141.54-10.85L141.54-10.85Q139.39-9.45 138.04-8.45L138.04-8.45 153.09-8.45 153.09 0 124.59 0 124.59-2.4Q124.59-5.05 125.81-7.13 127.04-9.2 129.39-11.3L129.39-11.3Q131.79-13.4 136.29-17L136.29-17Q139.89-19.85 141.34-21.35 142.79-22.85 142.79-24.3L142.79-24.3Q142.79-25.85 141.71-26.9 140.64-27.95 138.49-27.95L138.49-27.95Q136.24-27.95 134.94-26.65 133.64-25.35 133.64-23.25L133.64-23.25 133.64-22.25 124.74-22.25Q124.69-22.65 124.69-23.35L124.69-23.35Q124.69-28.75 128.46-31.88 132.24-35 139.44-35L139.44-35ZM172.19-35Q180.24-35 183.51-30.43 186.79-25.85 186.79-17.2L186.79-17.2Q186.79-8.55 183.51-3.98 180.24 0.6 172.19 0.6L172.19 0.6Q164.09 0.6 160.81-3.98 157.54-8.55 157.54-17.2L157.54-17.2Q157.54-25.85 160.81-30.43 164.09-35 172.19-35L172.19-35ZM172.19-28.25Q169.59-28.25 168.49-26.25 167.39-24.25 167.39-19.7L167.39-19.7 167.39-14.75Q167.39-10.15 168.49-8.15 169.59-6.15 172.19-6.15L172.19-6.15Q174.79-6.15 175.84-8.15 176.89-10.15 176.89-14.75L176.89-14.75 176.89-19.7Q176.89-24.3 175.84-26.28 174.79-28.25 172.19-28.25L172.19-28.25ZM206.13-35Q210.18-35 213.16-33.73 216.13-32.45 217.76-30.1 219.38-27.75 219.38-24.65L219.38-24.65Q219.38-21.75 217.93-19.4 216.48-17.05 214.28-15.25 212.08-13.45 208.23-10.85L208.23-10.85Q206.08-9.45 204.73-8.45L204.73-8.45 219.78-8.45 219.78 0 191.28 0 191.28-2.4Q191.28-5.05 192.51-7.13 193.73-9.2 196.08-11.3L196.08-11.3Q198.48-13.4 202.98-17L202.98-17Q206.58-19.85 208.03-21.35 209.48-22.85 209.48-24.3L209.48-24.3Q209.48-25.85 208.41-26.9 207.33-27.95 205.18-27.95L205.18-27.95Q202.93-27.95 201.63-26.65 200.33-25.35 200.33-23.25L200.33-23.25 200.33-22.25 191.43-22.25Q191.38-22.65 191.38-23.35L191.38-23.35Q191.38-28.75 195.16-31.88 198.93-35 206.13-35L206.13-35ZM245.53-7.7L253.38-7.7 253.38 0 227.43 0 227.43-7.7 235.58-7.7 235.58-23.25 227.43-23.25 227.43-29.05Q230.78-29.25 234.93-30.83 239.08-32.4 242.18-34.45L242.18-34.45 245.53-34.45 245.53-7.7Z" opacity="1" transform="matrix(1,0,0,1,0,0)" fill="#ffffff" class="undefined-text-1" data-fill-palette-color="secondary" id="text-1"></path></svg></g></svg></g></svg></g></svg></g><g transform="matrix(1,0,0,1,401.1659466752355,0)"><svg viewBox="0 0 61.280247305387185 61.280247305387185" height="61.280247305387185" width="61.280247305387185"><g data-palette-color="#ffffff"><rect width="16.749934263472497" height="61.280247305387185" fill="#ffffff" stroke="transparent" data-fill-palette-color="accent" x="0" fill-opacity="1"></rect><rect width="16.749934263472497" height="61.280247305387185" fill="#ffffff" stroke="transparent" data-fill-palette-color="accent" x="20.42674910179573" fill-opacity="0.75"></rect><rect width="16.749934263472497" height="61.280247305387185" fill="#ffffff" stroke="transparent" data-fill-palette-color="accent" x="40.85349820359146" fill-opacity="0.5"></rect></g></svg></g></svg></g><defs></defs></svg><rect width="395.52" height="52.41163994798135" fill="none" stroke="none" visibility="hidden"></rect></g></svg></g></svg>